<svg width="20" height="20" viewBox="0 0 20 20" fill="none" xmlns="http://www.w3.org/2000/svg">
<path d="M3.33341 16.6673C2.87508 16.6673 2.48286 16.5043 2.15675 16.1782C1.83064 15.852 1.6673 15.4595 1.66675 15.0007V5.00065C1.66675 4.54232 1.83008 4.1501 2.15675 3.82398C2.48341 3.49787 2.87564 3.33454 3.33341 3.33398H16.6667C17.1251 3.33398 17.5176 3.49732 17.8442 3.82398C18.1709 4.15065 18.334 4.54287 18.3334 5.00065V15.0007C18.3334 15.459 18.1704 15.8515 17.8442 16.1782C17.5181 16.5048 17.1256 16.6679 16.6667 16.6673H3.33341ZM10.0001 10.834L3.33341 6.66732V15.0007H16.6667V6.66732L10.0001 10.834ZM10.0001 9.16732L16.6667 5.00065H3.33341L10.0001 9.16732ZM3.33341 6.66732V5.00065V15.0007V6.66732Z" fill="#737378"/>
</svg>
