<svg width="28" height="28" viewBox="0 0 28 28" fill="none" xmlns="http://www.w3.org/2000/svg">
<path d="M18.9167 9.75H18.9251M17.6667 13.8083C17.7696 14.5019 17.6511 15.2102 17.3282 15.8325C17.0053 16.4548 16.4944 16.9595 15.8681 17.2747C15.2418 17.5899 14.5321 17.6997 13.8399 17.5883C13.1477 17.4769 12.5082 17.1501 12.0124 16.6543C11.5167 16.1585 11.1899 15.5191 11.0785 14.8268C10.9671 14.1346 11.0768 13.4249 11.392 12.7986C11.7072 12.1724 12.2119 11.6615 12.8342 11.3385C13.4566 11.0156 14.1649 10.8972 14.8584 11C15.5659 11.1049 16.2208 11.4346 16.7265 11.9403C17.2322 12.446 17.5618 13.1009 17.6667 13.8083Z" stroke="#1152D9" stroke-width="1.4" stroke-linecap="round" stroke-linejoin="round"/>
<path d="M18.5 6H10.1667C7.86548 6 6 7.86548 6 10.1667V18.5C6 20.8012 7.86548 22.6667 10.1667 22.6667H18.5C20.8012 22.6667 22.6667 20.8012 22.6667 18.5V10.1667C22.6667 7.86548 20.8012 6 18.5 6Z" stroke="#1152D9" stroke-width="1.4" stroke-linecap="round" stroke-linejoin="round"/>
</svg>
