<svg width="40" height="40" viewBox="0 0 40 40" fill="none" xmlns="http://www.w3.org/2000/svg">
<rect width="40" height="40" rx="20" fill="#FF854B"/>
<path d="M26.1417 14.075L21.2583 11.9C20.5416 11.5833 19.4583 11.5833 18.7416 11.9L13.8583 14.075C12.625 14.625 12.4417 15.375 12.4417 15.775C12.4417 16.175 12.625 16.925 13.8583 17.475L18.7416 19.65C19.1 19.8083 19.55 19.8916 20 19.8916C20.45 19.8916 20.9 19.8083 21.2583 19.65L26.1417 17.475C27.375 16.925 27.5583 16.175 27.5583 15.775C27.5583 15.375 27.3833 14.625 26.1417 14.075Z" fill="white"/>
<path d="M20 24.2C19.6834 24.2 19.3667 24.1333 19.075 24.0083L13.4583 21.5083C12.6 21.125 11.9333 20.1 11.9333 19.1583C11.9333 18.8166 12.2083 18.5416 12.55 18.5416C12.8917 18.5416 13.1667 18.8166 13.1667 19.1583C13.1667 19.6083 13.5417 20.1916 13.9583 20.375L19.575 22.875C19.8417 22.9916 20.15 22.9916 20.4167 22.875L26.0334 20.375C26.45 20.1916 26.825 19.6166 26.825 19.1583C26.825 18.8166 27.1 18.5416 27.4417 18.5416C27.7834 18.5416 28.0584 18.8166 28.0584 19.1583C28.0584 20.0916 27.3917 21.125 26.5334 21.5083L20.9167 24.0083C20.6334 24.1333 20.3167 24.2 20 24.2Z" fill="white"/>
<path d="M20 28.3334C19.6834 28.3334 19.3667 28.2667 19.075 28.1417L13.4583 25.6417C12.5333 25.2334 11.9333 24.3084 11.9333 23.2917C11.9333 22.95 12.2083 22.675 12.55 22.675C12.8917 22.675 13.1667 22.95 13.1667 23.2917C13.1667 23.8167 13.475 24.2917 13.9583 24.5084L19.575 27.0084C19.8417 27.125 20.15 27.125 20.4167 27.0084L26.0334 24.5084C26.5084 24.3 26.825 23.8167 26.825 23.2917C26.825 22.95 27.1 22.675 27.4417 22.675C27.7834 22.675 28.0584 22.95 28.0584 23.2917C28.0584 24.3084 27.4584 25.225 26.5334 25.6417L20.9167 28.1417C20.6334 28.2667 20.3167 28.3334 20 28.3334Z" fill="white"/>
</svg>
