<svg width="28" height="28" viewBox="0 0 28 28" fill="none" xmlns="http://www.w3.org/2000/svg">
<path d="M22.6476 22.2448C22.6475 22.3552 22.558 22.4447 22.4476 22.4447H19.1933C19.0829 22.4447 18.9933 22.3552 18.9933 22.2447V16.7784C18.9933 15.4273 18.969 13.6879 17.0928 13.6879C15.1895 13.6879 14.8983 15.16 14.8983 16.6801V22.2443C14.8983 22.3548 14.8088 22.4443 14.6983 22.4443H11.4441C11.3337 22.4443 11.2441 22.3548 11.2441 22.2443V10.9922C11.2441 10.8817 11.3337 10.7922 11.4441 10.7922H14.5522C14.6626 10.7922 14.7522 10.8817 14.7522 10.9922V12.3846H14.8013C15.1523 11.7902 15.6597 11.3013 16.2692 10.9698C16.8787 10.6383 17.5676 10.4768 18.2625 10.5023C21.9662 10.5023 22.6491 12.9145 22.6491 16.0525L22.6476 22.2448ZM7.12096 9.19939C6.70155 9.19947 6.29152 9.0764 5.94275 8.84574C5.59398 8.61509 5.32215 8.2872 5.16157 7.90356C5.001 7.51992 4.95892 7.09775 5.04067 6.69044C5.12242 6.28312 5.32433 5.90896 5.62084 5.61525C5.91736 5.32155 6.29517 5.12151 6.70651 5.04042C7.11785 4.95933 7.54423 5.00083 7.93174 5.15969C8.31925 5.31854 8.65049 5.5876 8.88357 5.93285C9.11664 6.27811 9.24109 6.68404 9.24116 7.09932C9.24121 7.37506 9.18641 7.6481 9.07988 7.90287C8.97336 8.15763 8.81722 8.38913 8.62034 8.58414C8.42346 8.77915 8.1897 8.93385 7.93244 9.03942C7.67517 9.14498 7.39944 9.19934 7.12096 9.19939ZM8.94806 22.2447C8.94806 22.3552 8.85852 22.4447 8.74806 22.4447H5.49005C5.37959 22.4447 5.29005 22.3552 5.29005 22.2447V10.9922C5.29005 10.8817 5.37959 10.7922 5.49005 10.7922H8.74806C8.85852 10.7922 8.94806 10.8817 8.94806 10.9922V22.2447Z" stroke="#1152D9"/>
</svg>
