<svg width="184" height="184" viewBox="0 0 184 184" fill="none" xmlns="http://www.w3.org/2000/svg">
<g filter="url(#filter0_d_122_709)">
<rect x="64" y="60" width="56" height="56" rx="28" fill="white"/>
<rect x="64.5" y="60.5" width="55" height="55" rx="27.5" stroke="#EDEDED"/>
<rect x="72" y="68" width="40" height="40" rx="20" fill="#1152D8"/>
<path d="M85.8333 95.8333H90.8333V94.1667C90.8333 93.7246 91.0089 93.3007 91.3215 92.9882C91.634 92.6756 92.058 92.5 92.5 92.5C92.942 92.5 93.366 92.6756 93.6785 92.9882C93.9911 93.3007 94.1667 93.7246 94.1667 94.1667V95.8333H99.1667V91.6667H96.6667V89.1667H88.3333V91.6667H85.8333V95.8333Z" fill="white"/>
<path d="M100 87.0833C100 86.8092 99.9358 86.5392 99.8133 86.2942L99.1667 85L98.52 86.2942C98.3974 86.5392 98.3335 86.8094 98.3333 87.0833C98.3333 87.1938 98.3772 87.2998 98.4554 87.378C98.5335 87.4561 98.6395 87.5 98.75 87.5H99.1667H99.5833C99.6938 87.5 99.7998 87.4561 99.878 87.378C99.9561 87.2998 100 87.1938 100 87.0833Z" fill="white"/>
<path d="M86.6667 87.0833C86.6667 86.8092 86.6025 86.5392 86.48 86.2942L85.8333 85L85.1867 86.2942C85.064 86.5392 85.0001 86.8094 85 87.0833C85 87.1938 85.0439 87.2998 85.122 87.378C85.2002 87.4561 85.3062 87.5 85.4167 87.5H85.8333H86.25C86.3605 87.5 86.4665 87.4561 86.5446 87.378C86.6228 87.2998 86.6667 87.1938 86.6667 87.0833Z" fill="white"/>
<path d="M88.3333 89.1667H96.6667C96.6667 88.0616 96.2277 87.0018 95.4463 86.2204C94.6649 85.439 93.6051 85 92.5 85C91.3949 85 90.3351 85.439 89.5537 86.2204C88.7723 87.0018 88.3333 88.0616 88.3333 89.1667Z" fill="white"/>
<path d="M85 95.8333H90.8333M90.8333 95.8333V94.1667C90.8333 93.7246 91.0089 93.3007 91.3215 92.9882C91.634 92.6756 92.058 92.5 92.5 92.5C92.942 92.5 93.366 92.6756 93.6785 92.9882C93.9911 93.3007 94.1667 93.7246 94.1667 94.1667V95.8333M90.8333 95.8333H85.8333M94.1667 95.8333H100M94.1667 95.8333H99.1667M85.8333 95.8333V87.5M85.8333 95.8333V91.6667H88.3333V89.1667M85.8333 87.5H85.4167M85.8333 87.5H86.25M99.1667 95.8333V87.5M99.1667 95.8333V91.6667H96.6667V89.1667M99.1667 87.5H98.75M99.1667 87.5H99.5833M88.3333 89.1667H96.6667M88.3333 89.1667C88.3333 88.0616 88.7723 87.0018 89.5537 86.2204C90.3351 85.439 91.3949 85 92.5 85M96.6667 89.1667C96.6667 88.0616 96.2277 87.0018 95.4463 86.2204C94.6649 85.439 93.6051 85 92.5 85M92.5 85V83.3333M98.75 87.5C98.6395 87.5 98.5335 87.4561 98.4554 87.378C98.3772 87.2998 98.3333 87.1938 98.3333 87.0833C98.3335 86.8094 98.3974 86.5392 98.52 86.2942L99.1667 85L99.8133 86.2942C99.9358 86.5392 100 86.8092 100 87.0833C100 87.1938 99.9561 87.2998 99.878 87.378C99.7998 87.4561 99.6938 87.5 99.5833 87.5M98.75 87.5H99.5833M85.4167 87.5C85.3062 87.5 85.2002 87.4561 85.122 87.378C85.0439 87.2998 85 87.1938 85 87.0833C85.0001 86.8094 85.064 86.5392 85.1867 86.2942L85.8333 85L86.48 86.2942C86.6025 86.5392 86.6667 86.8092 86.6667 87.0833C86.6667 87.1938 86.6228 87.2998 86.5446 87.378C86.4665 87.4561 86.3605 87.5 86.25 87.5M85.4167 87.5H86.25M92.5 80C92.1704 80 91.8481 80.0977 91.5741 80.2809C91.3 80.464 91.0863 80.7243 90.9602 81.0289C90.8341 81.3334 90.801 81.6685 90.8654 81.9918C90.9297 82.3151 91.0884 82.6121 91.3215 82.8452C91.5546 83.0783 91.8515 83.237 92.1748 83.3013C92.4982 83.3656 92.8333 83.3326 93.1378 83.2065C93.4423 83.0803 93.7026 82.8667 93.8858 82.5926C94.0689 82.3185 94.1667 81.9963 94.1667 81.6667" stroke="white" stroke-width="1.2" stroke-linecap="round" stroke-linejoin="round"/>
</g>
<defs>
<filter id="filter0_d_122_709" x="0" y="0" width="184" height="184" filterUnits="userSpaceOnUse" color-interpolation-filters="sRGB">
<feFlood flood-opacity="0" result="BackgroundImageFix"/>
<feColorMatrix in="SourceAlpha" type="matrix" values="0 0 0 0 0 0 0 0 0 0 0 0 0 0 0 0 0 0 127 0" result="hardAlpha"/>
<feOffset dy="4"/>
<feGaussianBlur stdDeviation="32"/>
<feComposite in2="hardAlpha" operator="out"/>
<feColorMatrix type="matrix" values="0 0 0 0 0.701166 0 0 0 0 0.716233 0 0 0 0 0.738834 0 0 0 0.3 0"/>
<feBlend mode="normal" in2="BackgroundImageFix" result="effect1_dropShadow_122_709"/>
<feBlend mode="normal" in="SourceGraphic" in2="effect1_dropShadow_122_709" result="shape"/>
</filter>
</defs>
</svg>
