<svg width="88" height="88" viewBox="0 0 88 88" fill="none" xmlns="http://www.w3.org/2000/svg">
<path d="M0 44C0 19.6995 19.6995 0 44 0C68.3005 0 88 19.6995 88 44C88 68.3005 68.3005 88 44 88C19.6995 88 0 68.3005 0 44Z" fill="#1152D9"/>
<path d="M44 56.4004C48.4183 56.4004 52 52.8187 52 48.4004C52 43.9821 48.4183 40.4004 44 40.4004C39.5817 40.4004 36 43.9821 36 48.4004C36 52.8187 39.5817 56.4004 44 56.4004Z" stroke="white" stroke-width="3" stroke-miterlimit="10" stroke-linecap="round" stroke-linejoin="round"/>
<path d="M44.5 45.9004V47.7604C44.5 48.4604 44.14 49.1204 43.52 49.4804L42 50.4004" stroke="white" stroke-width="3" stroke-miterlimit="10" stroke-linecap="round" stroke-linejoin="round"/>
<path d="M35.9997 64H51.9997C60.0397 64 61.4797 60.78 61.8997 56.86L63.3997 40.86C63.9397 35.98 62.5397 32 53.9997 32H33.9997C25.4597 32 24.0597 35.98 24.5997 40.86L26.0997 56.86C26.5197 60.78 27.9597 64 35.9997 64Z" stroke="white" stroke-width="3" stroke-miterlimit="10" stroke-linecap="round" stroke-linejoin="round"/>
<path d="M36 32V30.4C36 26.86 36 24 42.4 24H45.6C52 24 52 26.86 52 30.4V32" stroke="white" stroke-width="3" stroke-miterlimit="10" stroke-linecap="round" stroke-linejoin="round"/>
<path d="M63.2995 42C59.8395 44.52 55.9995 46.28 52.0195 47.28" stroke="white" stroke-width="3" stroke-miterlimit="10" stroke-linecap="round" stroke-linejoin="round"/>
<path d="M25.2402 42.5391C28.5802 44.8191 32.2202 46.4391 36.0002 47.3591" stroke="white" stroke-width="3" stroke-miterlimit="10" stroke-linecap="round" stroke-linejoin="round"/>
</svg>
