<svg width="28" height="28" viewBox="0 0 28 28" fill="none" xmlns="http://www.w3.org/2000/svg">
<path d="M11.9546 16.9018C11.9546 16.9786 12.0376 17.0268 12.1042 16.9886L17.0301 14.1715C17.0972 14.1331 17.0972 14.0362 17.0301 13.9978L12.1042 11.1804C12.0376 11.1423 11.9546 11.1904 11.9546 11.2672V16.9018Z" fill="#1152D9" stroke="#1152D9" stroke-width="1.4"/>
<path d="M23.582 9.21152C23.352 8.34073 22.6744 7.65501 21.8139 7.42229C20.2542 6.99935 14 6.99935 14 6.99935C14 6.99935 7.74583 6.99935 6.18613 7.42229C5.32564 7.65501 4.6479 8.34073 4.41792 9.21152C4 10.7898 4 14.0827 4 14.0827C4 14.0827 4 17.3756 4.41792 18.9539C4.6479 19.8246 5.32564 20.5103 6.18613 20.7432C7.74583 21.166 14 21.166 14 21.166C14 21.166 20.2542 21.166 21.8139 20.7432C22.6744 20.5103 23.352 19.8246 23.582 18.9539C24 17.3756 24 14.0827 24 14.0827C24 14.0827 24 10.7898 23.582 9.21152Z" stroke="#1152D9" stroke-width="1.4"/>
</svg>
